<?xml version="1.0" ?><svg viewBox="0 0 64 64" xmlns="http://www.w3.org/2000/svg"><g id="Avatar-doctor-health-hospital-medical"><path d="M54,52v9H10V52A10,10,0,0,1,20,42H44A10,10,0,0,1,54,52Z" style="fill:#00b6bd"/><path d="M12,54A10,10,0,0,1,22,44H46a9.935,9.935,0,0,1,5.991,2.009A9.974,9.974,0,0,0,44,42H20A10,10,0,0,0,10,52v9h2Z" style="fill:#00d7df"/><path d="M37,35.66V42c0,1.66-2.24,3-5,3s-5-1.34-5-3V35.66a10,10,0,0,0,10,0Z" style="fill:#f0d0b4"/><path d="M32,37a9.966,9.966,0,0,1-5-1.34v2a10,10,0,0,0,10,0v-2A9.966,9.966,0,0,1,32,37Z" style="fill:#ecc19c"/><path d="M42,15V27a10,10,0,0,1-8.6,9.9A9.23,9.23,0,0,1,32,37,10,10,0,0,1,22,27V15Z" style="fill:#bddbff"/><rect height="9" style="fill:#00e7f0" width="8" x="37" y="52"/><path d="M43,52v2.2A4.8,4.8,0,0,1,38.2,59H37V52Z" style="fill:#46f8ff"/><circle cx="24" cy="52" r="3" style="fill:#e9e9ea"/><path d="M25.555,49.445a2.987,2.987,0,0,1-4.11,4.11,2.993,2.993,0,1,0,4.11-4.11Z" style="fill:#d8d7da"/><path d="M46,22a2.006,2.006,0,0,1-2,2H42V18h2a2.006,2.006,0,0,1,2,2Z" style="fill:#f0d0b4"/><path d="M22,22v2H20a2.006,2.006,0,0,1-2-2V20a2.006,2.006,0,0,1,2-2h2Z" style="fill:#f0d0b4"/><polygon points="42 15 42 22 40 24 32 23 24 24 22 22 22 15 42 15" style="fill:#f5e0cd"/><path d="M44,7v8H20V7a4,4,0,0,1,4-4H40a4.01,4.01,0,0,1,4,4Z" style="fill:#00b6bd"/><rect height="2" style="fill:#f0d0b4" width="20" x="22" y="15"/><path d="M42.38,3.79a11.827,11.827,0,0,1-2.89,4.7A11.962,11.962,0,0,1,31,12H20V7a4,4,0,0,1,4-4H40A3.955,3.955,0,0,1,42.38,3.79Z" style="fill:#00d7df"/><rect height="9" style="fill:#009698" width="2" x="45" y="52"/><path d="M42,20.98V27a10,10,0,0,1-8.6,9.9C38.25,32.87,40.78,25.77,42,20.98Z" style="fill:#9bc9ff"/><rect height="16" style="fill:#009698" width="2" x="32" y="45"/><polygon points="33 6 31 6 31 8 29 8 29 10 31 10 31 12 33 12 33 10 35 10 35 8 33 8 33 6"/><path d="M44,41H38V36.21A11,11,0,0,0,43,27V25h1a3.009,3.009,0,0,0,3-3V20a3.009,3.009,0,0,0-3-3H43V16h1a1,1,0,0,0,1-1V7a5,5,0,0,0-5-5H24a5,5,0,0,0-5,5v8a1,1,0,0,0,1,1h1v1H20a3.009,3.009,0,0,0-3,3v2a3.009,3.009,0,0,0,3,3h1v2a11,11,0,0,0,5,9.21V41H20A11.007,11.007,0,0,0,9,52v9a1,1,0,0,0,1,1H54a1,1,0,0,0,1-1V52A11.007,11.007,0,0,0,44,41ZM21,23H20a1,1,0,0,1-1-1V20a1,1,0,0,1,1-1h1Zm20-1.41-1.36,1.36-7.52-.94a.964.964,0,0,0-.24,0l-7.52.94L23,21.59V16H41ZM44,19a1,1,0,0,1,1,1v2a1,1,0,0,1-1,1H43V19ZM21,7a3.009,3.009,0,0,1,3-3H40a3.009,3.009,0,0,1,3,3v7H21Zm2,20V24.41l.29.3a.992.992,0,0,0,.83.28L32,24.01l7.88.98A.487.487,0,0,0,40,25a1.007,1.007,0,0,0,.71-.29l.29-.3V27a9,9,0,0,1-4.9,8H36v.05a8.9,8.9,0,0,1-8,0V35h-.1A9,9,0,0,1,23,27Zm8,33H11V52a9.014,9.014,0,0,1,9-9h3v5.14a4,4,0,1,0,2,0V43h1.19c.57,1.53,2.43,2.69,4.81,2.94ZM24,50a2,2,0,1,1-2,2A2.006,2.006,0,0,1,24,50Zm4-8V37.24a10.906,10.906,0,0,0,8,0V42c0,.94-1.71,2-4,2S28,42.94,28,42ZM44,60H38V53h6Zm9,0H46V52a1,1,0,0,0-1-1H37a1,1,0,0,0-1,1v8H33V45.94c2.38-.25,4.24-1.41,4.81-2.94H44a9.014,9.014,0,0,1,9,9Z"/><path d="M28,21a1,1,0,0,0,1-1V19a1,1,0,0,0-2,0v1A1,1,0,0,0,28,21Z"/><path d="M36,21a1,1,0,0,0,1-1V19a1,1,0,0,0-2,0v1A1,1,0,0,0,36,21Z"/></g></svg>