<?xml version="1.0" ?><svg viewBox="0 0 64 64" xmlns="http://www.w3.org/2000/svg"><g id="Doctor-Jobs-Healthcare-Medical-Hospital"><path d="M27,32v5c0,1.66-1.79,3-4,3s-4-1.34-4-3V32Z" style="fill:#ffc477"/><path d="M43,49.35V61H3V49.35a9.989,9.989,0,0,1,7.02-9.54L15,38.25,19,37c0,1.66,1.79,3,4,3s4-1.34,4-3l5,1.56,3.98,1.25a9.971,9.971,0,0,1,6.41,6.12A9.774,9.774,0,0,1,43,49.35Z" style="fill:#00ccb3"/><circle cx="51" cy="51" r="10" style="fill:#ffd422"/><polygon points="56 49 56 53 53 53 53 56 49 56 49 53 46 53 46 49 49 49 49 46 53 46 53 49 56 49" style="fill:#e6e7e8"/><path d="M38,9a2.991,2.991,0,0,1,.98,5.82A1.1,1.1,0,0,1,39,15a2.985,2.985,0,0,1-2.22,2.89A2.983,2.983,0,0,0,34,16H33V13a9.89,9.89,0,0,0-1.62-5.45V7.54A3,3,0,0,1,37,9c0,.06-.02.13-.02.19A2.887,2.887,0,0,1,38,9Z" style="fill:#e6e7e8"/><path d="M36.78,17.89A2.93,2.93,0,0,1,37,19a3,3,0,0,1-3,3H33V16h1a2.983,2.983,0,0,1,2.78,1.89Z" style="fill:#ffb655"/><path d="M27,32v2.16a9.944,9.944,0,0,1-8,0V32Z" style="fill:#ffb655"/><path d="M33,13V23a10,10,0,0,1-20,0V13a9.981,9.981,0,0,1,1.62-5.46,10.131,10.131,0,0,1,1.31-1.61A10,10,0,0,1,31.38,7.54v.01A9.89,9.89,0,0,1,33,13Z" style="fill:#ffc477"/><path d="M27,23v2H19V23a2.006,2.006,0,0,1,2-2h4A2.006,2.006,0,0,1,27,23Z" style="fill:#e6e7e8"/><circle cx="15" cy="48" r="3" style="fill:#e6e7e8"/><path d="M14.62,7.54A9.981,9.981,0,0,0,13,13v3H12a2.983,2.983,0,0,0-2.78,1.89A2.985,2.985,0,0,1,7,15a1.1,1.1,0,0,1,.02-.18A2.991,2.991,0,0,1,8,9a2.887,2.887,0,0,1,1.02.19C9.02,9.13,9,9.06,9,9a3,3,0,0,1,5.62-1.46Z" style="fill:#e6e7e8"/><path d="M13,16v6H12a3,3,0,0,1-3-3,2.93,2.93,0,0,1,.22-1.11A2.983,2.983,0,0,1,12,16Z" style="fill:#ffb655"/><rect height="2" width="2" x="17" y="17"/><rect height="2" width="2" x="27" y="17"/><path d="M37,54H35v6H11V53H9v7H4V49.35a8.959,8.959,0,0,1,6.32-8.59L14,39.61v4.53a4,4,0,1,0,2,0V38.98l2.28-.71A5.024,5.024,0,0,0,23,41a5.024,5.024,0,0,0,4.72-2.73L31,39.3v4.8A5.017,5.017,0,0,0,27,49v2a1,1,0,0,0,1,1h2V50H29V49a3,3,0,0,1,6,0v1H34v2h2a1,1,0,0,0,1-1V49a5.017,5.017,0,0,0-4-4.9V39.92l2.68.84a9.023,9.023,0,0,1,4.27,2.87l1.55-1.26a11.008,11.008,0,0,0-5.22-3.52L28,36.26V32.79A11.014,11.014,0,0,0,34,23a4,4,0,0,0,4-4,4.363,4.363,0,0,0-.05-.52,4,4,0,0,0,2.02-3.02A3.988,3.988,0,0,0,37.87,8a3.992,3.992,0,0,0-6.44-2.06,10.988,10.988,0,0,0-16.86,0A3.992,3.992,0,0,0,8.13,8a3.988,3.988,0,0,0-2.1,7.46,4,4,0,0,0,2.02,3.02A4.363,4.363,0,0,0,8,19a4,4,0,0,0,4,4,11.014,11.014,0,0,0,6,9.79v3.47L9.72,38.85A10.945,10.945,0,0,0,2,49.35V61a1,1,0,0,0,1,1H42V60H37ZM26,37c0,1.08-1.37,2-3,2s-3-.92-3-2V33.57a10.68,10.68,0,0,0,6,0Zm8-16V17a2,2,0,0,1,0,4ZM34,7a2,2,0,0,1,2,1.95,1.942,1.942,0,0,0-.02.24.983.983,0,0,0,.43.82,1.009,1.009,0,0,0,.92.12A1.98,1.98,0,0,1,40,12a2.008,2.008,0,0,1-1.35,1.88A1.008,1.008,0,0,0,38,15a1.975,1.975,0,0,1-.82,1.6A4,4,0,0,0,34,15V13a10.883,10.883,0,0,0-1.43-5.4A1.987,1.987,0,0,1,34,7ZM12,21a2,2,0,0,1,0-4Zm0-8v2a4,4,0,0,0-3.18,1.6,1.976,1.976,0,0,1-.81-1.62,1,1,0,0,0-.66-1.1A2.008,2.008,0,0,1,6,12a1.98,1.98,0,0,1,2.67-1.87,1.009,1.009,0,0,0,.92-.12.983.983,0,0,0,.43-.82A.775.775,0,0,0,10,9a2,2,0,0,1,3.43-1.4A10.883,10.883,0,0,0,12,13Zm2,10V13a9,9,0,0,1,18,0V23a9,9,0,0,1-18,0Zm3,25a2,2,0,1,1-2-2A2.006,2.006,0,0,1,17,48Z"/><rect height="2" width="10" x="18" y="13"/><rect height="2" width="6" x="20" y="9"/><path d="M28,25V23a3,3,0,0,0-3-3H21a3,3,0,0,0-3,3v2a1,1,0,0,0,1,1h8A1,1,0,0,0,28,25Zm-2-1H20V23a1,1,0,0,1,1-1h4a1,1,0,0,1,1,1Z"/><rect height="2" width="4" x="21" y="28"/><path d="M56,48H54V46a1,1,0,0,0-1-1H49a1,1,0,0,0-1,1v2H46a1,1,0,0,0-1,1v4a1,1,0,0,0,1,1h2v2a1,1,0,0,0,1,1h4a1,1,0,0,0,1-1V54h2a1,1,0,0,0,1-1V49A1,1,0,0,0,56,48Zm-1,4H53a1,1,0,0,0-1,1v2H50V53a1,1,0,0,0-1-1H47V50h2a1,1,0,0,0,1-1V47h2v2a1,1,0,0,0,1,1h2Z"/><path d="M51,40A11,11,0,1,0,62,51,11.013,11.013,0,0,0,51,40Zm0,20a9,9,0,1,1,9-9A9.01,9.01,0,0,1,51,60Z"/></g></svg>