<?xml version="1.0" ?><svg viewBox="0 0 48 48" xmlns="http://www.w3.org/2000/svg"><defs><style>.cls-1{fill:#dad7e5;}.cls-2{fill:#edebf2;}.cls-3{fill:#f6ccaf;}.cls-4{fill:#ffdec7;}.cls-5{fill:#c6c3d8;}.cls-6{fill:#374f68;}.cls-7{fill:#6fabe6;}.cls-8{fill:#82bcf4;}.cls-9{fill:#5b9ad8;}.cls-10{fill:#231f20;}</style></defs><title/><g id="Doctor"><path class="cls-1" d="M34,13H14l1.47-8.11a4,4,0,0,1,3.44-3.25c6.11-.77,3.77-.81,10.18,0a4,4,0,0,1,3.44,3.25C33.84,12.08,33.52,10.33,34,13Z"/><path class="cls-2" d="M33.64,11h-9.4a6.88,6.88,0,0,1-6.77-8.11c.24-1.35-.21-1,6.53-1.89l5.09.64a4,4,0,0,1,3.44,3.25Z"/><path class="cls-3" d="M33,13v7a9,9,0,0,1-4,7.47c0-7.41.9-6.47-8-6.47a2,2,0,0,0-2,2v4.47A9,9,0,0,1,15,20V13Z"/><path class="cls-4" d="M33,13c0,6.58.67,10.05-2.62,13.34A9,9,0,0,1,18,18V13Z"/><path class="cls-1" d="M29,23v4.48a9,9,0,0,1-10,0V23a2,2,0,0,1,2-2h6A2,2,0,0,1,29,23Z"/><path class="cls-3" d="M15,13v6H14a3,3,0,0,1,0-6Z"/><path class="cls-3" d="M37,16a3,3,0,0,1-3,3H33V13h1A3,3,0,0,1,37,16Z"/><path class="cls-4" d="M37,15.5A3,3,0,0,1,34,18H33V13h1A3,3,0,0,1,37,15.5Z"/><path class="cls-1" d="M43,41.53A10,10,0,0,0,36.76,34L29,31c-5,16.11-4.13,13.23-5,16-.83-2.68,0,.11-5-16l-7.76,3A10,10,0,0,0,5,41.53C3.84,47.89,4,46.66,4,48H44C44,46.64,44.16,47.94,43,41.53Z"/><path class="cls-2" d="M23.38,45H12.56A4.64,4.64,0,0,1,8,39.53a9.94,9.94,0,0,1,2.67-5.18c.79-.51-.4,0,8.33-3.35Z"/><path class="cls-2" d="M43.63,45h-19L29,31l7.76,3A10,10,0,0,1,43,41.53Z"/><path class="cls-3" d="M28.33,31a4.34,4.34,0,0,1-8.67-.32A19.86,19.86,0,0,1,20,28.05a8.92,8.92,0,0,0,8,0A14.6,14.6,0,0,1,28.33,31Z"/><path class="cls-4" d="M27.27,33.53a4.35,4.35,0,0,1-7.6-3.17,9,9,0,0,0,5.57.36,1.64,1.64,0,0,1,2.05,1.33A4.58,4.58,0,0,1,27.27,33.53Z"/><rect class="cls-5" height="5" width="6" x="31" y="43"/><path class="cls-1" d="M37,43v3H35a3,3,0,0,1-3-3Z"/><path class="cls-6" d="M35,41v2H33V41A1,1,0,0,1,35,41Z"/><path class="cls-7" d="M29,31,24,47c-.7-2.22.25.82-5-16h.67a4.34,4.34,0,0,0,8.66,0Z"/><path class="cls-8" d="M29,31c-4.27,13.66-3.92,12.53-4.35,13.94-.73-2.32-.11-.36-3.42-10.94a4.34,4.34,0,0,0,6.68-1.45C28.8,30.77,27.72,31,29,31Z"/><path class="cls-9" d="M24.65,44.94,24,47l-.5-1.59c.17-.52,0-.07.63-2.13Z"/><path class="cls-7" d="M29,31c-4.27,13.66-3.92,12.53-4.35,13.94l-.52-1.66c3.49-12,2.39-8.62,3.24-9.89a4.24,4.24,0,0,0,1-2.39Z"/><path class="cls-10" d="M44,41.35a11.07,11.07,0,0,0-6.88-8.3l-7.75-3c-.1,0,0,.22-.27-1.48A10,10,0,0,0,34,20a4,4,0,0,0,.85-7.9L33.51,4.71A5,5,0,0,0,29.21.64c-6.57-.82-3.85-.82-10.42,0a5,5,0,0,0-4.3,4.07L13.15,12.1A4,4,0,0,0,14,20a10,10,0,0,0,4.91,8.59c-.24,1.68-.17,1.44-.27,1.48l-7.76,3A11.08,11.08,0,0,0,4,41.35L3,46.82a1,1,0,0,0,2,.36l1-5.47a9.05,9.05,0,0,1,5.62-6.79l6.76-2.6C23.43,48.53,23,47.44,23.3,47.7a1,1,0,0,0,.7.3c1,0,.65.27,5.64-15.68l6.76,2.6A9.05,9.05,0,0,1,42,41.71l1,5.47a1,1,0,0,0,2-.36Zm-20,2.3-2.6-8.33a5.29,5.29,0,0,0,5.2,0ZM20.17,27c-.24-.13-.17.29-.17-4a1,1,0,0,1,1-1h6a1,1,0,0,1,1,1v3.92A7.92,7.92,0,0,1,20.17,27ZM31.91,14l-3,6.72c-1.19-1-2-.72-7.92-.72a3,3,0,0,0-1.92.72l-3-6.72ZM30,25.27V23.21c2.4-5.39,2-4.62,2-4.21C32,21.12,31.9,23.12,30,25.27ZM36,16a2,2,0,0,1-2,2V14A2,2,0,0,1,36,16ZM16.46,5.07A3,3,0,0,1,19,2.63c6-.75,3.67-.78,9.92,0a3,3,0,0,1,2.58,2.44L32.8,12H15.2ZM12,16a2,2,0,0,1,2-2v4A2,2,0,0,1,12,16Zm4,2.71c2.4,5.4,2,4,2,6.56C16,23,16,20.73,16,18.71ZM27.2,29.47l.1.72a3.33,3.33,0,1,1-6.6,0l.1-.72A9.88,9.88,0,0,0,27.2,29.47Z"/><path class="cls-10" d="M25,9V8h1a1,1,0,0,0,0-2H25V5a1,1,0,0,0-2,0V6H22a1,1,0,0,0,0,2h1V9A1,1,0,0,0,25,9Z"/><path class="cls-10" d="M25,24H23a1,1,0,0,0,0,2h2A1,1,0,0,0,25,24Z"/><path class="cls-10" d="M20.69,17.72c.32-.29.49-.12.6,0a1,1,0,0,0,1.42,0c1.22-1.22-1.57-3.27-3.42-1.42A1,1,0,0,0,20.69,17.72Z"/><path class="cls-10" d="M26.69,17.72c.54-.49.53.28,1.31.28a1,1,0,0,0,.71-1.71c-1.81-1.8-4.62.15-3.42,1.4A1,1,0,0,0,26.69,17.72Z"/><path class="cls-10" d="M37,42H35V41a1,1,0,0,0-2,0v1H31a1,1,0,0,0-1,1v4a1,1,0,0,0,2,0V44h4v3a1,1,0,0,0,2,0V43A1,1,0,0,0,37,42Z"/></g></svg>