<?xml version="1.0" ?><svg data-name="filled outline" id="filled_outline" viewBox="0 0 512 512" xmlns="http://www.w3.org/2000/svg"><rect height="40" style="fill:#486be0" width="152" x="320" y="368"/><rect height="160" style="fill:#4976f2" width="128" x="320" y="176"/><rect height="216" style="fill:#486be0" width="128" x="64" y="216"/><rect height="184" style="fill:#548aff" width="128" x="24" y="248"/><rect height="32" style="fill:#8be0e8" width="96" x="24" y="280"/><rect height="352" style="fill:#548aff" width="128" x="192" y="80"/><rect height="32" style="fill:#4f7ff7" width="152" x="40" y="184"/><rect height="32" style="fill:#639aff" width="168" x="320" y="336"/><polygon points="192 152 56 152 64 168 64 184 192 184 192 152" style="fill:#8be0e8"/><rect height="32" style="fill:#4976f2" width="80" x="112" y="120"/><rect height="64" style="fill:#548aff" width="24" x="464" y="368"/><rect height="40" style="fill:#548aff" width="56" x="376" y="136"/><rect height="24" style="fill:#639aff" width="32" x="344" y="152"/><rect height="56" style="fill:#4976f2" width="32" x="240" y="376"/><rect height="32" style="fill:#8be0e8" width="96" x="24" y="344"/><rect height="64" style="fill:#548aff" width="24" x="408" y="368"/><rect height="64" style="fill:#548aff" width="24" x="352" y="368"/><path d="M488,328H456V176a8.00008,8.00008,0,0,0-8-8h-8V136a8.00008,8.00008,0,0,0-8-8H376a8.00008,8.00008,0,0,0-8,8v8H344a8.00008,8.00008,0,0,0-8,8v16h-8V80a8.00008,8.00008,0,0,0-8-8H192a8.00008,8.00008,0,0,0-8,8v32H112a8.00008,8.00008,0,0,0-8,8v24H56a8,8,0,0,0-7.15527,11.57812L56,169.88867V176H40a8.00008,8.00008,0,0,0-8,8v32a8.00008,8.00008,0,0,0,8,8H56v16H24a8.00008,8.00008,0,0,0-8,8V432a8.00008,8.00008,0,0,0,8,8H320a8.00008,8.00008,0,0,0,8-8V416h16v16a8.00008,8.00008,0,0,0,8,8h24a8.00008,8.00008,0,0,0,8-8V416h16v16a8.00008,8.00008,0,0,0,8,8h24a8.00008,8.00008,0,0,0,8-8V416h16v16a8.00008,8.00008,0,0,0,8,8h24a8.00008,8.00008,0,0,0,8-8V336A8.00008,8.00008,0,0,0,488,328ZM120,128h64v16H120Zm-16,48V160h16v16Zm32-16h16v16H136Zm32,0h16v16H168Zm-96.84473,4.42188L68.94434,160H88v16H72v-8A7.99934,7.99934,0,0,0,71.15527,164.42188ZM48,192H184v16H48Zm64,96v16H96V288ZM80,304H64V288H80Zm-32,0H32V288H48Zm64,48v16H96V352ZM80,368H64V352H80Zm-32,0H32V352H48Zm96,56H32V384h88a8.00008,8.00008,0,0,0,8-8V344a8.00008,8.00008,0,0,0-8-8H32V320h88a8.00008,8.00008,0,0,0,8-8V280a8.00008,8.00008,0,0,0-8-8H32V256H144ZM72,240V224H184V424H160V248a8.00008,8.00008,0,0,0-8-8ZM264,424H248V384h16Zm48,0H280V376a8.00008,8.00008,0,0,0-8-8H240a8.00008,8.00008,0,0,0-8,8v48H200V88H312Zm16-64V344H480v16Zm96-216v24H384V144Zm-72,16h16v8H352Zm88,24V328H328V184ZM328,400V376h16v24Zm32,24V376h8v48Zm24-24V376h16v24Zm32,24V376h8v48Zm24-24V376h16v24Zm32,24V376h8v48Z"/><polygon points="248 168 264 168 264 152 280 152 280 136 264 136 264 120 248 120 248 136 232 136 232 152 248 152 248 168"/><rect height="16" width="16" x="344" y="200"/><rect height="16" width="16" x="376" y="200"/><rect height="16" width="16" x="408" y="200"/><rect height="16" width="16" x="344" y="232"/><rect height="16" width="16" x="376" y="232"/><rect height="16" width="16" x="408" y="232"/><rect height="16" width="16" x="344" y="264"/><rect height="16" width="16" x="376" y="264"/><rect height="16" width="16" x="408" y="264"/><rect height="16" width="16" x="344" y="296"/><rect height="16" width="16" x="376" y="296"/><rect height="16" width="16" x="408" y="296"/></svg>