<?xml version="1.0" ?><svg id="Layer_1" style="enable-background:new 0 0 512 512;" version="1.1" viewBox="0 0 512 512" xml:space="preserve" xmlns="http://www.w3.org/2000/svg" xmlns:xlink="http://www.w3.org/1999/xlink"><g><g><path d="M253.81,449.828c0-9.676,7.869-17.531,17.546-17.531c9.676,0,17.553,7.855,17.553,17.531    c0,9.676-7.877,17.545-17.553,17.545C261.68,467.374,253.81,459.504,253.81,449.828z" style="fill:#838F9B;"/><path d="M391.046,449.828c0-5.461,2.484-10.525,6.816-13.878c3.127-2.423,6.809-3.668,10.689-3.668    c1.581,0,3.196,0.206,4.811,0.629c5.783,1.492,10.668,6.377,12.16,12.153c1.444,5.597,0.363,11.1-3.046,15.493    c-3.353,4.338-8.417,6.816-13.884,6.816C398.916,467.374,391.046,459.504,391.046,449.828z" style="fill:#838F9B;"/><path d="M436.665,444.295c-0.127-0.674-0.116-1.349-0.29-2.021c-2.518-9.772-10.449-17.71-20.207-20.228    c-8.869-2.258-18.059-0.452-25.169,5.037c-5.58,4.315-9.195,10.389-10.524,17.135H299.55    c-2.62-13.171-14.255-23.143-28.194-23.143c-13.919,0-25.549,9.951-28.183,23.104l-9.071-0.07    c-1.526-0.014-2.771-1.259-2.778-2.778l-0.199-40.097l211.524,0.147c0.02,0.383,0.034,0.78,0.034,1.163l1.068,41.866    L436.665,444.295z" style="fill:#FFFFFF;"/><path d="M49.739,43.793h150.779v22.335v402.08H167.89v-95.46c0-3.093-2.511-5.611-5.604-5.611H95.06    c-3.093,0-5.604,2.518-5.604,5.611v95.46H49.739V43.793z" style="fill:#AAB2BD;"/><path d="M125.128,57.861c15.828,0,28.707,12.865,28.707,28.699s-12.879,28.699-28.707,28.699    c-15.835,0-28.714-12.865-28.714-28.699S109.293,57.861,125.128,57.861z" style="fill:#FFFFFF;"/><path d="M348.175,71.739v44.575v174.51v8.636h-3.839c-3.093,0-5.604,2.518-5.604,5.611v15.621    c-2.577,0.504-4.564,2.676-4.564,5.401v18.277l-97.362-0.115c-9.327,0-16.915,7.595-16.915,17.012l0.572,32    c-0.346,0.733-0.576,1.529-0.572,2.394l0.226,45.725c0.034,7.623,6.262,13.878,13.898,13.946l9.151,0.071    c0.954,4.838,3.205,9.166,6.258,12.808h-37.696V71.739H348.175z" style="fill:#AAB2BD;"/><path d="M430.579,468.208c0.236-0.281,0.533-0.489,0.759-0.78c2.75-3.551,4.584-7.618,5.443-11.907    l6.792,0.11c0.054,0,0.116,0,0.171,0c2.751,0,5.331-1.068,7.288-2.997c1.984-1.957,3.073-4.571,3.066-7.376l-0.206-42.755    c-0.007-1.765-0.15-3.517-0.438-5.255c0.123-0.466,0.192-0.958,0.192-1.465c0-1.492-0.575-2.847-1.526-3.846    c-0.985-2.901-2.374-5.653-4.14-8.198c-13.029-18.818-31.314-31.875-51.493-36.775c-1.563-0.378-3.155-0.56-4.733-0.855    c-0.678-0.293-1.422-0.46-2.206-0.46c-0.055,0-0.102,0.03-0.157,0.032c-2.821-0.451-5.64-0.745-8.478-0.925v-18.663    c0-2.724-1.987-4.896-4.564-5.401v-15.621c0-3.093-2.511-5.611-5.604-5.611h-11.361v-8.636V119.599l102.809-57.837l0.069,406.447    L430.579,468.208L430.579,468.208z" style="fill:#AAB2BD;"/><g><g><path d="M473.402,52.182c0-1.998-1.053-3.832-2.771-4.845c-1.725-0.985-3.839-1.013-5.584-0.041l-105.663,59.433V66.128      c0-3.093-2.511-5.611-5.604-5.611H211.726V38.181c0-3.093-2.511-5.611-5.604-5.611H44.134c-3.093,0-5.604,2.518-5.604,5.611      v435.639c0,3.093,2.511,5.611,5.604,5.611H95.06h67.225h43.837h261.745c1.485,0,2.916-0.602,3.962-1.642      c1.053-1.053,1.642-2.477,1.642-3.969L473.402,52.182z M436.665,444.295c-0.127-0.674-0.116-1.349-0.29-2.021      c-2.518-9.772-10.449-17.71-20.207-20.228c-8.869-2.258-18.059-0.452-25.169,5.037c-5.58,4.315-9.195,10.389-10.524,17.135      H299.55c-2.62-13.171-14.255-23.143-28.194-23.143c-13.919,0-25.549,9.951-28.183,23.104l-9.071-0.07      c-1.526-0.014-2.771-1.259-2.778-2.778l-0.199-40.097l211.524,0.147c0.02,0.383,0.034,0.78,0.034,1.163l1.068,41.866      L436.665,444.295z M253.81,449.828c0-9.676,7.869-17.531,17.546-17.531c9.676,0,17.553,7.855,17.553,17.531      c0,9.676-7.877,17.545-17.553,17.545C261.68,467.374,253.81,459.504,253.81,449.828z M299.55,455.439h80.855      c0.958,4.823,3.208,9.137,6.254,12.769h-93.363C296.341,464.577,298.591,460.263,299.55,455.439z M391.046,449.828      c0-5.461,2.484-10.525,6.816-13.878c3.127-2.423,6.809-3.668,10.689-3.668c1.581,0,3.196,0.206,4.811,0.629      c5.783,1.492,10.668,6.377,12.16,12.153c1.444,5.597,0.363,11.1-3.046,15.493c-3.353,4.338-8.417,6.816-13.884,6.816      C398.916,467.374,391.046,459.504,391.046,449.828z M345.377,331.705h24.327v12.707l-24.327-0.028V331.705z M283.872,390.059      v-34.525l43.85,0.052v34.506L283.872,390.059z M272.662,390.051l-41.044-0.03l-0.52-28.85c0-3.147,2.56-5.693,5.7-5.693      l35.864,0.043V390.051z M395.152,390.139v-31.82c16.978,4.504,32.441,15.673,43.611,31.797c0.014,0.014,0.027,0.041,0.041,0.054      L395.152,390.139z M383.944,390.131l-45.013-0.033v-34.5h0.633c0.074,0.003,0.134,0.043,0.209,0.043h35.536      c2.879,0,5.761,0.196,8.636,0.514L383.944,390.131L383.944,390.131z M365.139,320.482H349.94v-9.799h15.199V320.482z       M348.175,71.739v44.575v174.51v8.636h-3.839c-3.093,0-5.604,2.518-5.604,5.611v15.621c-2.577,0.504-4.564,2.676-4.564,5.401      v18.277l-97.362-0.115c-9.327,0-16.915,7.595-16.915,17.012l0.572,32c-0.346,0.733-0.576,1.529-0.572,2.394l0.226,45.725      c0.034,7.623,6.262,13.878,13.898,13.946l9.151,0.071c0.954,4.838,3.205,9.166,6.258,12.808h-37.696V71.739H348.175z       M49.739,43.793h150.779v22.335v402.08H167.89v-95.46c0-3.093-2.511-5.611-5.604-5.611H95.06c-3.093,0-5.604,2.518-5.604,5.611      v95.46H49.739V43.793z M100.664,378.36h22.404v37.886c-2.1,1.675-3.531,4.144-3.531,7.038c0,2.893,1.431,5.363,3.531,7.037      v37.887h-22.404V378.36z M134.276,468.208v-37.884c2.103-1.675,3.535-4.145,3.535-7.04c0-2.896-1.433-5.366-3.535-7.041V378.36      h22.404v89.849L134.276,468.208L134.276,468.208z M430.579,468.208c0.236-0.281,0.533-0.489,0.759-0.78      c2.75-3.551,4.584-7.618,5.443-11.907l6.792,0.11c0.054,0,0.116,0,0.171,0c2.751,0,5.331-1.068,7.288-2.997      c1.984-1.957,3.073-4.571,3.066-7.376l-0.206-42.755c-0.007-1.765-0.15-3.517-0.438-5.255c0.123-0.466,0.192-0.958,0.192-1.465      c0-1.492-0.575-2.847-1.526-3.846c-0.985-2.901-2.374-5.653-4.14-8.198c-13.029-18.818-31.314-31.875-51.493-36.775      c-1.563-0.378-3.155-0.56-4.733-0.855c-0.678-0.293-1.422-0.46-2.206-0.46c-0.055,0-0.102,0.03-0.157,0.032      c-2.821-0.451-5.64-0.745-8.478-0.925v-18.663c0-2.724-1.987-4.896-4.564-5.401v-15.621c0-3.093-2.511-5.611-5.604-5.611      h-11.361v-8.636V119.599l102.809-57.837l0.069,406.447L430.579,468.208L430.579,468.208z"/><path d="M68.578,168.362h40.744c3.093,0,5.604-2.518,5.604-5.611v-26.783c0-3.093-2.511-5.611-5.604-5.611H68.578      c-3.093,0-5.604,2.518-5.604,5.611v26.783C62.972,165.844,65.485,168.362,68.578,168.362z M74.182,141.579h29.534v15.561H74.182      C74.182,157.139,74.182,141.579,74.182,141.579z"/><path d="M136.309,135.967v26.783c0,3.093,2.511,5.611,5.604,5.611h40.744c3.093,0,5.604-2.518,5.604-5.611v-26.783      c0-3.093-2.511-5.611-5.604-5.611h-40.744C138.821,130.356,136.309,132.874,136.309,135.967z M147.518,141.579h29.534v15.561      h-29.534V141.579z"/><path d="M68.578,227.732h40.744c3.093,0,5.604-2.518,5.604-5.611v-26.783c0-3.093-2.511-5.611-5.604-5.611H68.578      c-3.093,0-5.604,2.518-5.604,5.611v26.783C62.972,225.214,65.485,227.732,68.578,227.732z M74.182,200.949h29.534v15.561H74.182      C74.182,216.509,74.182,200.949,74.182,200.949z"/><path d="M182.657,189.727h-40.744c-3.093,0-5.604,2.518-5.604,5.611v26.783c0,3.093,2.511,5.611,5.604,5.611h40.744      c3.093,0,5.604-2.518,5.604-5.611v-26.783C188.261,192.244,185.749,189.727,182.657,189.727z M177.052,216.51h-29.534V200.95      h29.534V216.51z"/><path d="M68.578,287.102h40.744c3.093,0,5.604-2.518,5.604-5.611v-26.783c0-3.093-2.511-5.611-5.604-5.611H68.578      c-3.093,0-5.604,2.518-5.604,5.611v26.783C62.972,284.584,65.485,287.102,68.578,287.102z M74.182,260.319h29.534v15.561H74.182      C74.182,275.879,74.182,260.319,74.182,260.319z"/><path d="M182.657,249.096h-40.744c-3.093,0-5.604,2.518-5.604,5.611v26.783c0,3.093,2.511,5.611,5.604,5.611h40.744      c3.093,0,5.604-2.518,5.604-5.611v-26.783C188.261,251.614,185.749,249.096,182.657,249.096z M177.052,275.879h-29.534v-15.561      h29.534V275.879z"/><path d="M108.828,346.143c3.093,0,5.604-2.518,5.604-5.611v-26.784c0-3.093-2.511-5.611-5.604-5.611H68.085      c-3.093,0-5.604,2.518-5.604,5.611v26.784c0,3.093,2.511,5.611,5.604,5.611H108.828z M73.689,319.36h29.534v15.56H73.689      C73.689,334.92,73.689,319.36,73.689,319.36z"/><path d="M182.165,308.137h-40.744c-3.093,0-5.604,2.518-5.604,5.611v26.784c0,3.093,2.511,5.611,5.604,5.611h40.744      c3.093,0,5.604-2.518,5.604-5.611v-26.784C187.769,310.656,185.258,308.137,182.165,308.137z M176.559,334.92h-29.534v-15.56      h29.534V334.92z"/><path d="M231.734,128.782h34.441c3.093,0,5.604-2.518,5.604-5.611v-22.637c0-3.093-2.511-5.611-5.604-5.611h-34.441      c-3.093,0-5.604,2.518-5.604,5.611v22.637C226.13,126.264,228.641,128.782,231.734,128.782z M237.34,106.146h23.232v11.414      H237.34L237.34,106.146L237.34,106.146z"/><path d="M293.725,128.782h34.448c3.093,0,5.604-2.518,5.604-5.611v-22.637c0-3.093-2.511-5.611-5.604-5.611h-34.448      c-3.093,0-5.604,2.518-5.604,5.611v22.637C288.121,126.264,290.632,128.782,293.725,128.782z M299.329,106.146h23.238v11.414      h-23.238V106.146L299.329,106.146z"/><path d="M231.734,178.969h34.441c3.093,0,5.604-2.518,5.604-5.611v-22.637c0-3.093-2.511-5.611-5.604-5.611h-34.441      c-3.093,0-5.604,2.518-5.604,5.611v22.637C226.13,176.45,228.641,178.969,231.734,178.969z M237.34,156.332h23.232v11.414      H237.34L237.34,156.332L237.34,156.332z"/><path d="M293.725,178.969h34.448c3.093,0,5.604-2.518,5.604-5.611v-22.637c0-3.093-2.511-5.611-5.604-5.611h-34.448      c-3.093,0-5.604,2.518-5.604,5.611v22.637C288.121,176.45,290.632,178.969,293.725,178.969z M299.329,156.332h23.238v11.414      h-23.238V156.332L299.329,156.332z"/><path d="M231.734,229.156h34.441c3.093,0,5.604-2.518,5.604-5.611v-22.637c0-3.093-2.511-5.611-5.604-5.611h-34.441      c-3.093,0-5.604,2.518-5.604,5.611v22.637C226.13,226.637,228.641,229.156,231.734,229.156z M237.34,206.519h23.232v11.414      H237.34L237.34,206.519L237.34,206.519z"/><path d="M293.725,229.156h34.448c3.093,0,5.604-2.518,5.604-5.611v-22.637c0-3.093-2.511-5.611-5.604-5.611h-34.448      c-3.093,0-5.604,2.518-5.604,5.611v22.637C288.121,226.637,290.632,229.156,293.725,229.156z M299.329,206.519h23.238v11.414      h-23.238V206.519L299.329,206.519z"/><path d="M231.734,279.342h34.441c3.093,0,5.604-2.518,5.604-5.611v-22.637c0-3.093-2.511-5.611-5.604-5.611h-34.441      c-3.093,0-5.604,2.518-5.604,5.611v22.637C226.13,276.824,228.641,279.342,231.734,279.342z M237.34,256.706h23.232v11.414      H237.34L237.34,256.706L237.34,256.706z"/><path d="M293.725,279.342h34.448c3.093,0,5.604-2.518,5.604-5.611v-22.637c0-3.093-2.511-5.611-5.604-5.611h-34.448      c-3.093,0-5.604,2.518-5.604,5.611v22.637C288.121,276.824,290.632,279.342,293.725,279.342z M299.329,256.706h23.238v11.414      h-23.238V256.706L299.329,256.706z"/><path d="M231.734,325.765h34.441c3.093,0,5.604-2.518,5.604-5.611v-22.637c0-3.093-2.511-5.611-5.604-5.611h-34.441      c-3.093,0-5.604,2.518-5.604,5.611v22.637C226.13,323.246,228.641,325.765,231.734,325.765z M237.34,303.128h23.232v11.414      H237.34L237.34,303.128L237.34,303.128z"/><path d="M293.725,325.765h34.448c3.093,0,5.604-2.518,5.604-5.611v-22.637c0-3.093-2.511-5.611-5.604-5.611h-34.448      c-3.093,0-5.604,2.518-5.604,5.611v22.637C288.121,323.246,290.632,325.765,293.725,325.765z M299.329,303.128h23.238v11.414      h-23.238V303.128L299.329,303.128z"/><path d="M442.109,119.12c-3.093,0-5.604,2.518-5.604,5.611v8.731h-14.48c-3.093,0-5.604,2.518-5.604,5.611      c0,3.093,2.511,5.611,5.604,5.611h20.084c3.093,0,5.604-2.518,5.604-5.611v-14.342      C447.713,121.638,445.202,119.12,442.109,119.12z"/><path d="M397.945,119.12c-3.093,0-5.604,2.518-5.604,5.611v8.731h-14.473c-3.093,0-5.604,2.518-5.604,5.611      c0,3.093,2.511,5.611,5.604,5.611h20.077c3.093,0,5.604-2.518,5.604-5.611v-14.342      C403.549,121.638,401.038,119.12,397.945,119.12z"/><path d="M442.109,167.746c-3.093,0-5.604,2.518-5.604,5.611v8.731h-14.48c-3.093,0-5.604,2.518-5.604,5.611      s2.511,5.611,5.604,5.611h20.084c3.093,0,5.604-2.518,5.604-5.611v-14.343C447.713,170.265,445.202,167.746,442.109,167.746z"/><path d="M397.945,167.746c-3.093,0-5.604,2.518-5.604,5.611v8.731h-14.473c-3.093,0-5.604,2.518-5.604,5.611      s2.511,5.611,5.604,5.611h20.077c3.093,0,5.604-2.518,5.604-5.611v-14.343C403.549,170.265,401.038,167.746,397.945,167.746z"/><path d="M442.109,216.372c-3.093,0-5.604,2.518-5.604,5.611v8.731h-14.48c-3.093,0-5.604,2.518-5.604,5.611      s2.511,5.611,5.604,5.611h20.084c3.093,0,5.604-2.518,5.604-5.611v-14.343C447.713,218.891,445.202,216.372,442.109,216.372z"/><path d="M397.945,216.372c-3.093,0-5.604,2.518-5.604,5.611v8.731h-14.473c-3.093,0-5.604,2.518-5.604,5.611      s2.511,5.611,5.604,5.611h20.077c3.093,0,5.604-2.518,5.604-5.611v-14.343C403.549,218.891,401.038,216.372,397.945,216.372z"/><path d="M442.109,264.999c-3.093,0-5.604,2.518-5.604,5.611v8.731h-14.48c-3.093,0-5.604,2.518-5.604,5.611      s2.511,5.611,5.604,5.611h20.084c3.093,0,5.604-2.518,5.604-5.611V270.61C447.713,267.517,445.202,264.999,442.109,264.999z"/><path d="M442.109,307.193c-3.093,0-5.604,2.518-5.604,5.611v8.731h-14.48c-3.093,0-5.604,2.518-5.604,5.611      s2.511,5.611,5.604,5.611h20.084c3.093,0,5.604-2.518,5.604-5.611v-14.343C447.713,309.711,445.202,307.193,442.109,307.193z"/><path d="M397.945,264.999c-3.093,0-5.604,2.518-5.604,5.611v8.731h-14.473c-3.093,0-5.604,2.518-5.604,5.611      s2.511,5.611,5.604,5.611h20.077c3.093,0,5.604-2.518,5.604-5.611V270.61C403.549,267.517,401.038,264.999,397.945,264.999z"/><path d="M396.76,307.193c-3.093,0-5.604,2.518-5.604,5.611v8.731h-4.434c-3.093,0-5.604,2.518-5.604,5.611      s2.511,5.611,5.604,5.611h10.039c3.093,0,5.604-2.518,5.604-5.611v-14.343C402.365,309.711,399.853,307.193,396.76,307.193z"/><path d="M125.128,126.484c22.007,0,39.915-17.914,39.915-39.922s-17.908-39.922-39.915-39.922      c-22.014,0-39.922,17.914-39.922,39.922S103.114,126.484,125.128,126.484z M125.128,57.861      c15.828,0,28.707,12.865,28.707,28.699s-12.879,28.699-28.707,28.699c-15.835,0-28.714-12.865-28.714-28.699      S109.293,57.861,125.128,57.861z"/><polygon points="119.654,107.877 130.599,107.877 130.599,92.03 146.445,92.03 146.445,81.086       130.599,81.086 130.599,65.24 119.654,65.24 119.654,81.086 103.807,81.086 103.807,92.03 119.654,92.03     " style="fill:#C7463B;"/><circle cx="408.594" cy="449.834" r="8.547"/><path d="M279.905,450.021c0-4.72-3.827-8.547-8.548-8.547c-4.72,0-8.547,3.827-8.547,8.547c0,4.721,3.827,8.548,8.547,8.548      C276.077,458.569,279.905,454.743,279.905,450.021z"/></g></g><rect height="15.56" style="fill:#80D3E0;" width="29.534" x="74.182" y="141.579"/><rect height="15.56" width="29.534" x="74.182" y="200.949"/><rect height="15.56" style="fill:#80D3E0;" width="29.534" x="74.182" y="200.949"/><rect height="15.56" style="fill:#80D3E0;" width="29.534" x="74.182" y="260.319"/><rect height="15.56" style="fill:#80D3E0;" width="29.534" x="73.689" y="319.36"/><rect height="15.56" style="fill:#80D3E0;" width="29.534" x="147.518" y="141.579"/><rect height="15.56" style="fill:#80D3E0;" width="29.534" x="147.518" y="200.95"/><rect height="15.56" style="fill:#80D3E0;" width="29.534" x="147.518" y="260.319"/><rect height="15.56" style="fill:#80D3E0;" width="29.534" x="147.025" y="319.36"/><path d="M100.664,378.36h22.404v37.886c-2.1,1.675-3.531,4.144-3.531,7.038    c0,2.893,1.431,5.363,3.531,7.037v37.887h-22.404V378.36z" style="fill:#838F9B;"/><path d="M134.276,468.208v-37.884c2.103-1.675,3.535-4.145,3.535-7.04c0-2.896-1.433-5.366-3.535-7.041    V378.36h22.404v89.849L134.276,468.208L134.276,468.208z" style="fill:#838F9B;"/><polygon points="299.329,106.146 322.568,106.146 322.568,117.56 299.329,117.56 299.329,106.146   " style="fill:#80D3E0;"/><polygon points="299.329,156.332 322.568,156.332 322.568,167.746 299.329,167.746 299.329,156.332   " style="fill:#80D3E0;"/><polygon points="299.329,206.519 322.568,206.519 322.568,217.933 299.329,217.933 299.329,206.519   " style="fill:#80D3E0;"/><polygon points="299.329,206.519 322.568,206.519 322.568,217.933 299.329,217.933 299.329,206.519   " style="fill:#80D3E0;"/><polygon points="299.329,256.706 322.568,256.706 322.568,268.12 299.329,268.12 299.329,256.706   " style="fill:#80D3E0;"/><polygon points="299.329,303.128 322.568,303.128 322.568,314.542 299.329,314.542 299.329,303.128   " style="fill:#80D3E0;"/><polygon points="237.34,106.146 260.571,106.146 260.571,117.56 237.34,117.56 237.34,106.146   " style="fill:#80D3E0;"/><polygon points="237.34,156.332 260.571,156.332 260.571,167.746 237.34,167.746 237.34,156.332   " style="fill:#80D3E0;"/><polygon points="237.339,206.518 260.571,206.518 260.571,217.932 237.339,217.932 237.339,206.518   " style="fill:#80D3E0;"/><polygon points="237.339,256.706 260.571,256.706 260.571,268.12 237.339,268.12 237.339,256.706   " style="fill:#80D3E0;"/><polygon points="237.339,303.129 260.571,303.129 260.571,314.543 237.339,314.543 237.339,303.129   " style="fill:#80D3E0;"/><polygon points="283.872,390.059 283.872,355.533 327.722,355.586 327.722,390.092   " style="fill:#80D3E0;"/><path d="M272.662,390.051l-41.044-0.03l-0.52-28.85c0-3.147,2.56-5.693,5.7-5.693l35.864,0.043V390.051z" style="fill:#80D3E0;"/><path d="M395.152,390.139v-31.82c16.978,4.504,32.441,15.673,43.611,31.797    c0.014,0.014,0.027,0.041,0.041,0.054L395.152,390.139z" style="fill:#80D3E0;"/><path d="M383.944,390.131l-45.013-0.033v-34.5h0.633c0.074,0.003,0.134,0.043,0.209,0.043h35.536    c2.879,0,5.761,0.196,8.636,0.514L383.944,390.131L383.944,390.131z" style="fill:#80D3E0;"/><polygon points="345.377,331.705 369.703,331.705 369.703,344.412 345.377,344.384   " style="fill:#838F9B;"/><rect height="9.799" style="fill:#C7463B;" width="15.199" x="349.94" y="310.683"/><polygon points="345.527,408.307 334.424,408.307 334.424,417.182 325.548,417.182 325.548,428.285     334.424,428.285 334.424,437.16 345.527,437.16 345.527,428.285 354.403,428.285 354.403,417.182 345.527,417.182   " style="fill:#C7463B;"/></g><path d="M299.55,455.439h80.855c0.958,4.823,3.208,9.137,6.254,12.769h-93.363   C296.341,464.577,298.591,460.263,299.55,455.439z" style="fill:#AAB2BD;"/></g></svg>