<?xml version="1.0" ?><svg viewBox="0 0 64 64" xmlns="http://www.w3.org/2000/svg"><defs><style>.cls-1{fill:#ccc;}.cls-2{fill:#f2f2f2;}.cls-3{fill:#737373;}.cls-4{fill:#999;}.cls-5{fill:#c4eff8;}.cls-6{fill:#9ce5f4;}.cls-7{fill:#4e737a;}.cls-8{fill:#75acb7;}.cls-9{fill:#565656;}.cls-10{fill:none;stroke:#000;stroke-linejoin:round;stroke-width:2px;}</style></defs><title/><g data-name="Layer 23" id="Layer_23"><rect class="cls-1" height="20" width="52" x="6" y="34"/><rect class="cls-2" height="20" width="49" x="6" y="34"/><rect class="cls-3" height="16" width="8" x="24" y="38"/><rect class="cls-4" height="16" width="5" x="24" y="38"/><rect class="cls-3" height="16" width="8" x="32" y="38"/><rect class="cls-4" height="16" width="5" x="32" y="38"/><rect class="cls-1" height="20" width="52" x="6" y="10"/><rect class="cls-2" height="20" width="49" x="6" y="10"/><rect class="cls-5" height="8" width="4" x="10" y="38"/><rect class="cls-5" height="8" width="4" x="50" y="38"/><rect class="cls-6" height="8" width="8" x="10" y="18"/><rect class="cls-5" height="8" width="5" x="10" y="18"/><rect class="cls-6" height="8" width="8" x="22" y="18"/><rect class="cls-5" height="8" width="5" x="22" y="18"/><rect class="cls-6" height="8" width="8" x="34" y="18"/><rect class="cls-5" height="8" width="5" x="34" y="18"/><rect class="cls-6" height="8" width="8" x="46" y="18"/><rect class="cls-5" height="8" width="5" x="46" y="18"/><rect class="cls-3" height="4" width="60" x="2" y="6"/><rect class="cls-4" height="4" width="57" x="2" y="6"/><rect class="cls-7" height="12" width="18" x="23" y="2"/><rect class="cls-8" height="12" width="15" x="23" y="2"/><rect class="cls-3" height="4" width="60" x="2" y="30"/><rect class="cls-4" height="4" width="57" x="2" y="30"/><rect class="cls-9" height="4" width="56" x="4" y="54"/><rect class="cls-3" height="4" width="53" x="4" y="54"/><rect class="cls-3" height="4" width="60" x="2" y="58"/><rect class="cls-4" height="4" width="57" x="2" y="58"/><rect class="cls-10" height="4" width="60" x="2" y="58"/><rect class="cls-10" height="4" width="56" x="4" y="54"/><line class="cls-10" x1="6" x2="6" y1="54" y2="34"/><line class="cls-10" x1="58" x2="58" y1="54" y2="34"/><line class="cls-10" x1="18" x2="18" y1="34" y2="54"/><line class="cls-10" x1="46" x2="46" y1="34" y2="54"/><polyline class="cls-10" points="24 54 24 38 40 38 40 54"/><line class="cls-10" x1="32" x2="32" y1="38" y2="54"/><rect class="cls-10" height="8" width="4" x="10" y="38"/><rect class="cls-10" height="8" width="4" x="50" y="38"/><line class="cls-10" x1="6" x2="6" y1="30" y2="10"/><line class="cls-10" x1="58" x2="58" y1="30" y2="10"/><rect class="cls-10" height="4" width="60" x="2" y="30"/><polyline class="cls-10" points="23 10 2 10 2 6 23 6"/><polyline class="cls-10" points="41 6 62 6 62 10 41 10"/><rect class="cls-10" height="12" width="18" x="23" y="2"/><line class="cls-10" x1="32" x2="32" y1="5" y2="11"/><line class="cls-10" x1="29" x2="35" y1="8" y2="8"/><rect class="cls-10" height="8" width="8" x="10" y="18"/><rect class="cls-10" height="8" width="8" x="22" y="18"/><rect class="cls-10" height="8" width="8" x="34" y="18"/><rect class="cls-10" height="8" width="8" x="46" y="18"/></g></svg>